<svg xmlns="http://www.w3.org/2000/svg" width="32" height="32" viewBox="0 0 32 32" fill="none">
  <defs>
    <linearGradient id="bud-green" x1="0" y1="0" x2="1" y2="1"><stop offset="0" stop-color="#63CE82"/><stop offset="1" stop-color="#43B067"/></linearGradient>
    <linearGradient id="bud-amber" x1="0" y1="0" x2="1" y2="1"><stop offset="0" stop-color="#E6AC4C"/><stop offset="1" stop-color="#CE8E27"/></linearGradient>
    <linearGradient id="bud-purple" x1="0" y1="0" x2="1" y2="1"><stop offset="0" stop-color="#8F84D6"/><stop offset="1" stop-color="#6E62C1"/></linearGradient>
    <linearGradient id="bud-red" x1="0" y1="0" x2="1" y2="1"><stop offset="0" stop-color="#EC6058"/><stop offset="1" stop-color="#D93F38"/></linearGradient>
  </defs>
  <path d="M16 16 L16 5 A11 11 0 0 1 27 16 Z" fill="url(#bud-green)"/>
  <path d="M16 16 L27 16 A11 11 0 0 1 16 27 Z" fill="url(#bud-amber)"/>
  <path d="M16 16 L16 27 A11 11 0 0 1 5 16 Z" fill="url(#bud-purple)"/>
  <path d="M16 16 L5 16 A11 11 0 0 1 16 5 Z" fill="url(#bud-red)"/>
  <circle cx="16" cy="16" r="4.6" fill="#ffffff"/>
</svg>
